{"title":"Sweet.November.2001.720p.WEBRip.x264.DD5.1-FGT","uid":12772096,"size":8486277623,"categoryP":"video","categoryS":"hd___movies","magnet":"?xt=urn:btih:93005316827baee1822aae5e32337309728f33b8&amp;dn=Sweet.November.2001.720p.WEBRip.x264.DD5.1-FGT&amp;tr=udp%3A%2F%2Ftracker.leechers-paradise.org%3A6969&amp;tr=udp%3A%2F%2Fzer0day.ch%3A1337&amp;tr=udp%3A%2F%2Fopen.demonii.com%3A1337&amp;tr=udp%3A%2F%2Ftracker.coppersurfer.tk%3A6969&amp;tr=udp%3A%2F%2Fexodus.desync.com%3A6969","seeders":0,"leechers":1,"uploader":"TheRival","files":3,"time":1447691748,"description":"Screens: \nhttp://extraimago.com/image/4WM \nhttp://extraimago.com/image/4WU \nhttp://extraimago.com/image/4Wz \nhttp://extraimago.com/image/4W0 \nhttp://extraimago.com/image/4WJ \nhttp://extraimago.com/image/4WK\r\n\r\nVideo\r\nID                                       : 1\r\nFormat                                   : AVC\r\nFormat/Info                              : Advanced Video Codec\r\nFormat profile                           :   \r\nFormat settings, CABAC                   : Yes\r\nFormat settings, ReFrames                : 8 frames\r\nCodec ID                                 : V_MPEG4/ISO/AVC\r\nDuration                                 : 2h 0mn\r\nBit rate                                 : 8 840 Kbps\r\nWidth                                    : 1 274 pixels\r\nHeight                                   : 720 pixels\r\nDisplay aspect ratio                     : 16:9\r\nFrame rate mode                          : Constant\r\nFrame rate                               : 23.976 fps\r\nColor space                              : YUV\r\nChroma subsampling                       : 4:2:0\r\nBit depth                                : 8 bits\r\nScan type                                : Progressive\r\nBits/(Pixel*Frame)                       : 0.402\r\nStream size                              : 7.42 GiB (94%)\r\nTitle                                    : Sweet.November.2001.720p.WEBRip.x264.DD5.1-FGT\r\nWriting library                          : x264 core 128 r2216 198a7ea\r\nEncoding settings                        : cabac=1 / ref=8 / deblock=1:-2:-2 / analyse=0x3:0x113 / me=umh / subme=11 / psy=1 / psy_rd=1.00:0.05 / mixed_ref=1 / me_range=32 / chroma_me=1 / trellis=2 / 8x8dct=1 / cqm=0 / deadzone=21,11 / fast_pskip=0 / chroma_qp_offset=-4 / threads=6 / lookahead_threads=1 / sliced_threads=0 / nr=0 / decimate=1 / interlaced=0 / bluray_compat=0 / constrained_intra=0 / bframes=8 / b_pyramid=2 / b_adapt=2 / b_bias=0 / direct=1 / weightb=1 / open_gop=0 / weightp=2 / keyint=240 / keyint_min=22 / scenecut=40 / intra_refresh=0 / rc_lookahead=60 / rc=crf / mbtree=0 / crf=18.0 / qcomp=0.60 / qpmin=0 / qpmax=69 / qpstep=4 / vbv_maxrate=50000 / vbv_bufsize=62500 / crf_max=0.0 / nal_hrd=none / ip_ratio=1.40 / pb_ratio=1.30 / aq=2:0.90\r\nLanguage                                 : English\r\nDefault                                  : Yes\r\nForced                                   : No\r\n\r\nAudio\r\nID                                       : 2\r\nFormat                                   : AC-3\r\nFormat/Info                              : Audio Coding 3\r\nMode extension                           : CM (complete main)\r\nFormat settings, Endianness              : Big\r\nCodec ID                                 : A_AC3\r\nDuration                                 : 2h 0mn\r\nBit rate mode                            : Constant\r\nBit rate                                 : 384 Kbps\r\nChannel(s)                               : 6 channels\r\nChannel positions                        : Front: L C R, Side: L R, LFE\r\nSampling rate                            : 48.0 KHz\r\nCompression mode                         : Lossy\r\nStream size                              : 330 MiB (4%)\r\nTitle                                    : Sweet.November.2001.720p.WEBRip.x264.DD5.1-FGT\r\nLanguage                                 : English\r\nDefault                                  : Yes\r\nForced                                   : No\r\n\r\nText\r\nID                                       : 3\r\nFormat                                   : UTF-8\r\nCodec ID                                 : S_TEXT/UTF8\r\nCodec ID/Info                            : UTF-8 Plain Text\r\nLanguage                                 : English\r\nDefault                                  : No\r\nForced                                   : No\r\n\r\nMenu\r\n00:00:00.000                             : en:00:00:00.000\r\n00:03:10.107                             : en:00:03:10.107\r\n00:05:35.335                             : en:00:05:35.335\r\n00:08:43.941                             : en:00:08:43.941\r\n00:10:48.357                             : en:00:10:48.357\r\n00:13:50.706                             : en:00:13:50.706\r\n00:16:36.622                             : en:00:16:36.622\r\n00:21:35.963                             : en:00:21:35.963\r\n00:24:50.574                             : en:00:24:50.574\r\n00:26:42.728                             : en:00:26:42.728\r\n00:30:16.733                             : en:00:30:16.733\r\n00:35:26.543                             : en:00:35:26.543\r\n00:40:05.739                             : en:00:40:05.739\r\n00:43:07.504                             : en:00:43:07.504\r\n00:47:23.677                             : en:00:47:23.677\r\n00:51:00.435                             : en:00:51:00.435\r\n00:55:55.689                             : en:00:55:55.689\r\n00:58:36.725                             : en:00:58:36.725\r\n01:02:49.895                             : en:01:02:49.895\r\n01:05:50.117                             : en:01:05:50.117\r\n01:08:22.686                             : en:01:08:22.686\r\n01:14:49.781                             : en:01:14:49.781\r\n01:20:44.803                             : en:01:20:44.803\r\n01:24:17.140                             : en:01:24:17.140\r\n01:25:52.110                             : en:01:25:52.110\r\n01:30:01.360                             : en:01:30:01.360\r\n01:35:18.886                             : en:01:35:18.886\r\n01:36:56.358                             : en:01:36:56.358\r\n01:40:46.296                             : en:01:40:46.296\r\n01:45:48.265                             : en:01:45:48.265\r\n01:48:11.200                             : en:01:48:11.200\r\n01:54:17.232                             : en:01:54:17.232","torrent":{"xt":"urn:btih:93005316827baee1822aae5e32337309728f33b8","amp;dn":"Sweet.November.2001.720p.WEBRip.x264.DD5.1-FGT","amp;tr":["udp%3A%2F%2Ftracker.leechers-paradise.org%3A6969","udp%3A%2F%2Fzer0day.ch%3A1337","udp%3A%2F%2Fopen.demonii.com%3A1337","udp%3A%2F%2Ftracker.coppersurfer.tk%3A6969","udp%3A%2F%2Fexodus.desync.com%3A6969"],"infoHash":"93005316827baee1822aae5e32337309728f33b8","infoHashBuffer":{"type":"Buffer","data":[147,0,83,22,130,123,174,225,130,42,174,94,50,51,115,9,114,143,51,184]},"announce":[],"urlList":[]}}